This Movie is optimized for best resolution in iPhone [full Screen]
Please post your comments about how it looks in your iPhone. Thanks

You can view the movie on PC.

For use on TV you have to convert in DVD 
http://thepiratebay.org/search/convertxtodvd/0/99/0

------------------------------------------------------------------

SNAPSHOTS





IMDB 
http://www.imdb.com/title/tt0944835/

-----------------------------------------------------------------

Plot [English][/b]
As a CIA officer, Evelyn Salt swore an oath to duty, honor and country. Her loyalty will be tested when a defector accuses her of being a Russian spy. Salt goes on the run, using all her skills and years of experience as a covert operative to elude capture. Salt\\\\\\\'s efforts to prove her innocence only serve to cast doubt on her motives, as the hunt to uncover the truth behind her identity continues and the question remains: \\\\\\\"Who is Salt?\\\\\\\" Written by Sony Pictures 

[b]Plot [Greek][/b]
Î©Ï‚ Ï€ÏÎ¬ÎºÏ„Î¿ÏÎ±Ï‚ Ï„Î·Ï‚ CIA, Î· ÎˆÎ²ÎµÎ»Î¹Î½ Î£Î¿Î»Ï„ (Î‘Î½Ï„Î¶ÎµÎ»Î¯Î½Î± Î¤Î¶Î¿Î»Î¯) Î­Ï‡ÎµÎ¹ Î¿ÏÎºÎ¹ÏƒÏ„ÎµÎ¯ Ï€Î¯ÏƒÏ„Î· ÏƒÏ„Î¿ ÎºÎ±Î¸Î®ÎºÎ¿Î½, Ï„Î·Î½ Ï„Î¹Î¼Î® ÎºÎ±Î¹ Ï„Î·Î½ Ï€Î±Ï„ÏÎ¯Î´Î±. Î— Î±Ï†Î¿ÏƒÎ¯Ï‰ÏƒÎ® Ï„Î·Ï‚ Î¸Î± Î´Î¿ÎºÎ¹Î¼Î±ÏƒÏ„ÎµÎ¯ ÏŒÏ„Î±Î½ Î­Î½Î±Ï‚ Ï€ÏÏŽÎ·Î½ Ï€ÏÎ¬ÎºÏ„Î¿ÏÎ±Ï‚ Ï„Î·Î½ ÎºÎ±Ï„Î·Î³Î¿ÏÎµÎ¯ ÏŒÏ„Î¹ ÎµÎ¯Î½Î±Î¹ Î¡Ï‰ÏƒÎ¯Î´Î± ÎºÎ±Ï„Î¬ÏƒÎºÎ¿Ï€Î¿Ï‚ ÎºÎ±Î¹ Î· Î£Î¿Î»Ï„ Î¼Ï€Î±Î¯Î½ÎµÎ¹ ÏƒÏ„Î¿ ÏƒÏ„ÏŒÏ‡Î±ÏƒÏ„ÏÎ¿ Ï„Î·Ï‚ Ï…Ï€Î·ÏÎµÏƒÎ¯Î±Ï‚. ÎˆÎ½Î± Î±ÏƒÏ„Î±Î¼Î¬Ï„Î·Ï„Î¿ Î±Î½Î¸ÏÏ‰Ï€Î¿ÎºÏ…Î½Î·Î³Î·Ï„ÏŒ Î¸Î± Î¾ÎµÎºÎ¹Î½Î®ÏƒÎµÎ¹, ÏŒÏ€Î¿Ï… Î· ÎˆÎ²ÎµÎ»Î¹Î½ Î¸Î± Ï‡ÏÎ·ÏƒÎ¹Î¼Î¿Ï€Î¿Î¹Î®ÏƒÎµÎ¹ ÏŒÎ»ÎµÏ‚ Ï„Î¹Ï‚ Î¹ÎºÎ±Î½ÏŒÏ„Î·Ï„ÎµÏ‚ ÎºÎ±Î¹ Ï„Î·Î½ Ï€Î¿Î»ÏÏ‡ÏÎ¿Î½Î· ÎµÎ¼Ï€ÎµÎ¹ÏÎ¯Î± Ï„Î·Ï‚ Î³Î¹Î± Î½Î± Î´Î¹Î±Ï†ÏÎ³ÎµÎ¹. ÎŸÎ¹ Ï€ÏÎ¿ÏƒÏ€Î¬Î¸ÎµÎ¹Î­Ï‚ Ï„Î·Ï‚ Î³Î¹Î± Î½Î± Î±Ï€Î¿Î´ÎµÎ¯Î¾ÎµÎ¹ Ï„Î·Î½ Î±Î¸Ï‰ÏŒÏ„Î·Ï„Î¬ Ï„Î·Ï‚ Î±Ï€Î»ÏŽÏ‚ ÏƒÏ…Î½Ï„Î·ÏÎ¿ÏÎ½ Ï„Î¹Ï‚ Î±Î¼Ï†Î¹Î²Î¿Î»Î¯ÎµÏ‚ Î³Î¹Î± Ï„Î± Î±Î»Î·Î¸Î¹Î½Î¬ Ï„Î·Ï‚ ÎºÎ¯Î½Î·Ï„ÏÎ±, ÎºÎ±Î¸ÏŽÏ‚ Î· Î±Î½Î±Î¶Î®Ï„Î·ÏƒÎ· Î³Î¹Î± Ï„Î·Î½ Î±Î»Î·Î¸Î¹Î½Î® Ï„Î·Ï‚ Ï„Î±Ï…Ï„ÏŒÏ„Î·Ï„Î± ÏƒÏ…Î½ÎµÏ‡Î¯Î¶ÎµÏ„Î±Î¹ ÎºÎ±Î¹ Î­Î½Î± ÎµÏÏŽÏ„Î·Î¼Î± Ï€Î±ÏÎ±Î¼Î­Î½ÎµÎ¹ Î±Î½Î±Ï€Î¬Î½Ï„Î·Ï„Î¿: \\\\\\\"Î Î¿Î¹Î± ÎµÎ¯Î½Î±Î¹ Î· Î£Î¿Î»Ï„;\\\\\\\"

Angelina Jolie, Liev Schreiber and Chiwetel Ejiofor

----------------------------------------------------------------------------

Salt (2010)  BRrip [Greek Subs] iPhone optimized - Media Info

Format                           : MPEG-4
Format profile                   : Base Media / Version 2
Codec ID                         : mp42
File size                        : 574 MiB
Duration                         : 1h 44mn
Overall bit rate                 : 770 Kbps

Video
ID                               : 1
Format                           : AVC
Format/Info                      : Advanced Video Codec
Codec ID/Info                    : Advanced Video Coding
Duration                         : 1h 44mn
Bit rate mode                    : Variable
Bit rate                         : 704 Kbps
Maximum bit rate                 : 3 623 Kbps
Width                            : 640 pixels
Height                           : 480 pixels
Display aspect ratio             : 4:3
Frame rate mode                  : Constant
Frame rate                       : 30.000 fps
Stream size                      : 524 MiB (91%)
Language                         : English

Audio
ID                               : 2
Format                           : AAC
Format/Info                      : Advanced Audio Codec
Format profile                   : LC
Codec ID                         : 40
Duration                         : 1h 44mn
Bit rate mode                    : Variable
Bit rate                         : 64.0 Kbps
Maximum bit rate                 : 77.7 Kbps
Channel(s)                       : 2 channels
Channel positions                : Front: L R
Sampling rate                    : 32.0 KHz
Compression mode                 : Lossy
Stream size                      : 47.6 MiB (8%)
Language                         : English